<?xml version="1.0" encoding="utf-8"?>
<!-- Generator: Adobe Illustrator 24.3.0, SVG Export Plug-In . SVG Version: 6.00 Build 0)  -->
<svg version="1.1" id="Calque_1" xmlns="http://www.w3.org/2000/svg" xmlns:xlink="http://www.w3.org/1999/xlink" x="0px" y="0px"
	 viewBox="0 0 800 800" style="enable-background:new 0 0 800 800;" xml:space="preserve">
<style type="text/css">
	.st0{fill:#8BCED1;}
	.st1{fill:#f0f0f0;}
</style>
<g>
	<path class="st0" d="M229.82,146.25v370.73h-15.18V146.25H229.82 M244.68,131.39h-44.9v400.45h44.9V131.39L244.68,131.39z"/>
</g>
<g>
	<path class="st0" d="M348.33,146.25v370.73h-15.18V146.25H348.33 M363.19,131.39h-44.9v400.45h44.9V131.39L363.19,131.39z"/>
</g>
<g>
	<path class="st0" d="M466.85,146.25v370.73h-15.18V146.25H466.85 M481.71,131.39h-44.9v400.45h44.9V131.39L481.71,131.39z"/>
</g>
<g>
	<path class="st0" d="M585.36,146.25v370.73h-15.18V146.25H585.36 M600.22,131.39h-44.9v400.45h44.9V131.39L600.22,131.39z"/>
</g>
<g>
	<g>
		<path class="st1" d="M215.37,621.34c-8.44,0-15.44,7.32-15.44,16.45c0,9.19,7.01,16.45,15.44,16.45c4.65,0,8.19-1.75,10.54-4.69
			l0.19,4.07h7.5v-31.52h-8.06v3.57C223.25,622.96,219.84,621.34,215.37,621.34L215.37,621.34z M216.92,646.85
			c-5.02,0-8.93-4.07-8.93-9.07c0-5,3.91-9.01,8.93-9.01c4.96,0,8.87,4,8.87,9.01C225.79,642.78,221.89,646.85,216.92,646.85
			L216.92,646.85z"/>
	</g>
	<g>
		<path class="st1" d="M254.65,621.46c-8.87,0-15.82,7.25-15.82,16.38c0,9.07,6.88,16.07,16,16.07c4.28,0,7.51-1.5,9.74-4.07v1.88
			c0,5.82-4.03,9.63-9.3,9.63c-3.84,0-7.63-2-9.99-5.63l-5.09,5.13c3.53,5.19,9.74,7.75,15.32,7.75c9.8,0,17.18-6.69,17.18-16.88
			v-29.64h-8.13v3.63C262.34,623.08,259.05,621.46,254.65,621.46L254.65,621.46z M255.82,646.91c-5.02,0-8.93-4.06-8.93-9.07
			c0-5.07,3.91-9.07,8.93-9.07c4.96,0,8.99,4,8.99,9.07C264.82,642.85,260.79,646.91,255.82,646.91L255.82,646.91z"/>
	</g>
	<g>
		<path class="st1" d="M285.17,607.14c-2.54,0-4.71,2.06-4.71,4.69s2.17,4.69,4.71,4.69c2.61,0,4.71-2.06,4.71-4.69
			S287.78,607.14,285.17,607.14L285.17,607.14z M289.14,622.09h-7.94v31.52h7.94V622.09L289.14,622.09z"/>
	</g>
	<g>
		<polygon class="st1" points="305.58,605.45 297.58,605.45 297.58,653.6 305.58,653.6 305.58,605.45 		"/>
	</g>
	<g>
		<path class="st1" d="M328.54,621.46c-9.55,0-16.5,7.25-16.5,16.38c0,9.13,6.82,16.39,16.75,16.39c6.58,0,11.85-3.25,14.39-8.44
			l-6.45-2.69c-1.67,2.94-4.71,4.57-8,4.57c-4.59,0-8.19-3.25-8.81-8.38h24.63l0.06-1.75C344.48,627.9,337.53,621.46,328.54,621.46
			L328.54,621.46z M320.72,633.09c1.36-3.19,4.09-5.19,7.88-5.19c3.66,0,6.14,2,7.44,5.19H320.72L320.72,633.09z"/>
	</g>
	<g>
		<path class="st1" d="M391.49,621.46c-9.55,0-16.5,7.25-16.5,16.38c0,9.13,6.82,16.39,16.75,16.39c6.58,0,11.85-3.25,14.39-8.44
			l-6.45-2.69c-1.67,2.94-4.71,4.57-8,4.57c-4.59,0-8.19-3.25-8.81-8.38h24.63l0.06-1.75C407.43,627.9,400.48,621.46,391.49,621.46
			L391.49,621.46z M383.67,633.09c1.36-3.19,4.09-5.19,7.88-5.19c3.66,0,6.14,2,7.44,5.19H383.67L383.67,633.09z"/>
	</g>
	<g>
		<path class="st1" d="M430.26,621.46c-3.16,0-6.14,1.25-8.37,3.5v-2.88h-8v31.52h8v-19.39c0.06-3.19,2.54-5.63,5.89-5.63
			c3.16,0,5.64,2.31,5.64,5.63v19.39h8.06v-20.39C441.49,626.65,436.53,621.46,430.26,621.46L430.26,621.46z"/>
	</g>
	<g>
		<path class="st1" d="M462.46,621.34c-8.44,0-15.44,7.32-15.44,16.45c0,9.19,7.01,16.45,15.44,16.45c4.65,0,8.19-1.75,10.54-4.69
			l0.19,4.07h7.5v-31.52h-8.06v3.57C470.34,622.96,466.93,621.34,462.46,621.34L462.46,621.34z M464.02,646.85
			c-5.02,0-8.93-4.07-8.93-9.07c0-5,3.91-9.01,8.93-9.01c4.96,0,8.87,4,8.87,9.01C472.89,642.78,468.98,646.85,464.02,646.85
			L464.02,646.85z"/>
	</g>
	<g>
		<path class="st1" d="M497.21,605.45h-8.06v48.15h7.5l0.19-4.07c2.36,2.94,6.02,4.69,10.36,4.69c8.75,0,15.63-7.25,15.63-16.45
			c0-9.13-6.88-16.45-15.63-16.45c-3.85,0-7.57,1.44-9.99,4.32V605.45L497.21,605.45z M505.83,647.04c-4.96,0-8.93-4.07-8.93-9.26
			c0-5.19,3.97-9.19,8.93-9.19c5.02,0,8.93,4,8.93,9.19C514.76,642.97,510.86,647.04,505.83,647.04L505.83,647.04z"/>
	</g>
	<g>
		<polygon class="st1" points="537.16,605.45 529.16,605.45 529.16,653.6 537.16,653.6 537.16,605.45 		"/>
	</g>
	<g>
		<path class="st1" d="M560.12,621.46c-9.55,0-16.5,7.25-16.5,16.38c0,9.13,6.82,16.39,16.75,16.39c6.58,0,11.85-3.25,14.39-8.44
			l-6.45-2.69c-1.67,2.94-4.71,4.57-8,4.57c-4.59,0-8.19-3.25-8.81-8.38h24.63l0.06-1.75C576.06,627.9,569.11,621.46,560.12,621.46
			L560.12,621.46z M552.3,633.09c1.36-3.19,4.09-5.19,7.88-5.19c3.66,0,6.14,2,7.44,5.19H552.3L552.3,633.09z"/>
	</g>
	<g>
		<path class="st1" d="M598.96,621.46c-3.97,0-6.58,1.88-8.44,5.07v-4.44h-8v31.52h8v-13.94c0-7.85,3.48-10.41,7.46-10.41
			c0.69,0,1.39,0.08,2.09,0.21v-7.94C599.7,621.46,599.33,621.46,598.96,621.46L598.96,621.46z"/>
	</g>
</g>
</svg>
